<?xml version="1.0" encoding="UTF-8" standalone="no"?>
<!-- Created with Inkscape (http://www.inkscape.org/) -->

<svg
   xmlns:dc="http://purl.org/dc/elements/1.1/"
   xmlns:cc="http://creativecommons.org/ns#"
   xmlns:rdf="http://www.w3.org/1999/02/22-rdf-syntax-ns#"
   xmlns:svg="http://www.w3.org/2000/svg"
   xmlns="http://www.w3.org/2000/svg"
   xmlns:sodipodi="http://sodipodi.sourceforge.net/DTD/sodipodi-0.dtd"
   xmlns:inkscape="http://www.inkscape.org/namespaces/inkscape"
   version="1.1"
   id="svg164"
   xml:space="preserve"
   width="1000"
   height="844.82758"
   viewBox="0 0 999.99999 844.82759"
   sodipodi:docname="A.svg"
   inkscape:version="0.92.4 (5da689c313, 2019-01-14)"><metadata
     id="metadata170"><rdf:RDF><cc:Work
         rdf:about=""><dc:format>image/svg+xml</dc:format><dc:type
           rdf:resource="http://purl.org/dc/dcmitype/StillImage" /><dc:title></dc:title></cc:Work></rdf:RDF></metadata><defs
     id="defs168"><clipPath
       clipPathUnits="userSpaceOnUse"
       id="clipPath192"><path
         d="M 0,0 H 289.134 V 459.212 H 0 Z"
         id="path190"
         inkscape:connector-curvature="0" /></clipPath><clipPath
       clipPathUnits="userSpaceOnUse"
       id="clipPath208"><path
         d="M 0,0 H 289.134 V 459.212 H 0 Z"
         id="path206"
         inkscape:connector-curvature="0" /></clipPath><clipPath
       clipPathUnits="userSpaceOnUse"
       id="clipPath224"><path
         d="M 0,0 H 289.134 V 459.212 H 0 Z"
         id="path222"
         inkscape:connector-curvature="0" /></clipPath><clipPath
       clipPathUnits="userSpaceOnUse"
       id="clipPath264"><path
         d="M 0,255.118 H 289.134 V 459.212 H 0 Z"
         id="path262"
         inkscape:connector-curvature="0" /></clipPath><clipPath
       clipPathUnits="userSpaceOnUse"
       id="clipPath276"><path
         d="m 285.25,318.158 c -0.961,-1.036 -1.997,-1.993 -3.099,-2.861 v 0 -21.168 h 5.76 v 27.373 c -0.806,-1.197 -1.698,-2.317 -2.661,-3.344"
         id="path274"
         inkscape:connector-curvature="0" /></clipPath><clipPath
       clipPathUnits="userSpaceOnUse"
       id="clipPath288"><path
         d="M 276.924,459.212 V 320.958 h 5.227 v -5.661 c 1.102,0.868 2.138,1.825 3.099,2.861 v 0 c 0.963,1.027 1.855,2.147 2.661,3.344 v 0 137.71 z M 0,459.212 V 294.129 h 4.711 v 26.829 h 5.646 v 138.254 z"
         id="path286"
         inkscape:connector-curvature="0" /></clipPath><clipPath
       clipPathUnits="userSpaceOnUse"
       id="clipPath300"><path
         d="m 15.445,459.212 0.043,-34.589 h 96.807 v 34.589 z"
         id="path298"
         inkscape:connector-curvature="0" /></clipPath><clipPath
       clipPathUnits="userSpaceOnUse"
       id="clipPath312"><path
         d="m 112.166,424.623 h 96.884 v 34.59 h -96.884 z"
         id="path310"
         inkscape:connector-curvature="0" /></clipPath><clipPath
       clipPathUnits="userSpaceOnUse"
       id="clipPath324"><path
         d="m 208.921,459.212 v -34.589 h 63.52 l -0.4,34.589 z"
         id="path322"
         inkscape:connector-curvature="0" /></clipPath><clipPath
       clipPathUnits="userSpaceOnUse"
       id="clipPath336"><path
         d="m 15.488,424.753 0.043,-34.726 h 96.764 v 34.726 z"
         id="path334"
         inkscape:connector-curvature="0" /></clipPath><clipPath
       clipPathUnits="userSpaceOnUse"
       id="clipPath352"><path
         d="m 208.921,424.753 v -34.726 h 3.875 v 8.09 h 58.797 v -8.09 h 1.248 l -0.401,34.726 z"
         id="path350"
         inkscape:connector-curvature="0" /></clipPath><clipPath
       clipPathUnits="userSpaceOnUse"
       id="clipPath364"><path
         d="m 15.531,390.158 0.043,-34.727 h 96.721 v 34.727 z"
         id="path362"
         inkscape:connector-curvature="0" /></clipPath><clipPath
       clipPathUnits="userSpaceOnUse"
       id="clipPath380"><path
         d="m 271.593,390.158 v -34.727 h 1.648 l -0.401,34.727 z m -62.672,-34.727 h 3.875 v 34.727 h -3.875 z"
         id="path378"
         inkscape:connector-curvature="0" /></clipPath><clipPath
       clipPathUnits="userSpaceOnUse"
       id="clipPath392"><path
         d="m 15.574,355.562 0.043,-34.604 h 96.678 v 34.604 z"
         id="path390"
         inkscape:connector-curvature="0" /></clipPath><clipPath
       clipPathUnits="userSpaceOnUse"
       id="clipPath404"><path
         d="m 112.166,355.562 v -34.604 h 13.461 l 83.423,5.68 v 28.924 z"
         id="path402"
         inkscape:connector-curvature="0" /></clipPath><clipPath
       clipPathUnits="userSpaceOnUse"
       id="clipPath416"><path
         d="m 271.593,355.562 v -23.523 c 0.229,0.18 0.437,0.37 0.626,0.566 v 0 c 0.962,1.027 1.25,1.917 1.253,2.835 v 0 l -0.232,20.122 z m -62.672,0 V 326.63 l 3.875,0.263 v 28.669 z"
         id="path414"
         inkscape:connector-curvature="0" /></clipPath><clipPath
       clipPathUnits="userSpaceOnUse"
       id="clipPath428"><path
         d="M 10.357,459.212 V 320.958 h 5.26 l -0.172,138.254 z"
         id="path426"
         inkscape:connector-curvature="0" /></clipPath><clipPath
       clipPathUnits="userSpaceOnUse"
       id="clipPath440"><path
         d="m 272.041,459.212 1.431,-123.772 c -0.003,-0.918 -0.291,-1.808 -1.253,-2.835 v 0 c -0.189,-0.196 -0.397,-0.386 -0.626,-0.566 v 0 -11.081 h 5.331 v 138.254 z"
         id="path438"
         inkscape:connector-curvature="0" /></clipPath><clipPath
       clipPathUnits="userSpaceOnUse"
       id="clipPath452"><path
         d="m 125.627,320.958 h 87.169 v 5.935 z"
         id="path450"
         inkscape:connector-curvature="0" /></clipPath><clipPath
       clipPathUnits="userSpaceOnUse"
       id="clipPath464"><path
         d="m 271.593,291.198 h 10.558 v 2.931 h -10.558 z m -184.612,2.931 -17.812,-1.531 -2.167,-1.4 h 145.794 v 2.931 z m -82.27,-2.931 h 1.144 c -0.385,0.134 -0.767,0.273 -1.144,0.419 v 0 z"
         id="path462"
         inkscape:connector-curvature="0" /></clipPath><clipPath
       clipPathUnits="userSpaceOnUse"
       id="clipPath476"><path
         d="m 4.711,294.129 v -2.512 c 0.377,-0.146 0.759,-0.285 1.144,-0.419 v 0 h 61.147 l 2.167,1.4 17.812,1.531 z"
         id="path474"
         inkscape:connector-curvature="0" /></clipPath><clipPath
       clipPathUnits="userSpaceOnUse"
       id="clipPath488"><path
         d="m 276.924,312.07 v -4.426 h -5.331 v -0.012 h 5.331 v -4.298 h -5.331 v -9.205 h 10.558 v 21.168 c -1.614,-1.273 -3.367,-2.357 -5.227,-3.227 m -82.88,-8.736 -107.063,-9.205 h 125.815 v 9.205 z"
         id="path486"
         inkscape:connector-curvature="0" /></clipPath><clipPath
       clipPathUnits="userSpaceOnUse"
       id="clipPath500"><path
         d="m 276.924,320.958 v -8.888 c 1.86,0.87 3.613,1.954 5.227,3.227 v 0 5.661 z m -272.213,0 v -26.829 h 82.27 l 107.063,9.205 H 10.357 v 4.298 h 202.439 v 0.012 H 10.357 v 13.314 z"
         id="path498"
         inkscape:connector-curvature="0" /></clipPath><clipPath
       clipPathUnits="userSpaceOnUse"
       id="clipPath512"><path
         d="m 271.593,310.243 v -2.599 h 5.331 v 4.426 c -1.697,-0.794 -3.482,-1.41 -5.331,-1.827"
         id="path510"
         inkscape:connector-curvature="0" /></clipPath><clipPath
       clipPathUnits="userSpaceOnUse"
       id="clipPath524"><path
         d="m 15.617,320.958 0.003,-2.101 c 0.026,-1.127 0.494,-2.162 1.892,-3.243 v 0 c 1.229,-0.925 3.146,-1.617 5.49,-1.617 v 0 c 0.291,0 0.588,0.011 0.891,0.033 v 0 l 101.734,6.928 z"
         id="path522"
         inkscape:connector-curvature="0" /></clipPath><clipPath
       clipPathUnits="userSpaceOnUse"
       id="clipPath536"><path
         d="m 271.593,320.958 v -10.715 c 1.849,0.417 3.634,1.033 5.331,1.827 v 0 8.888 z m -145.966,0 -101.734,-6.928 c -0.303,-0.022 -0.6,-0.033 -0.891,-0.033 v 0 c -2.344,0 -4.261,0.692 -5.49,1.617 v 0 c -1.398,1.081 -1.866,2.116 -1.892,3.243 v 0 l -0.003,2.101 h -5.26 v -13.314 h 202.439 v 13.314 z"
         id="path534"
         inkscape:connector-curvature="0" /></clipPath><clipPath
       clipPathUnits="userSpaceOnUse"
       id="clipPath548"><path
         d="m 271.593,303.334 h 5.331 v 4.297 h -5.331 z m -77.549,0 h 18.752 v 1.613 z"
         id="path546"
         inkscape:connector-curvature="0" /></clipPath><clipPath
       clipPathUnits="userSpaceOnUse"
       id="clipPath560"><path
         d="m 10.357,307.632 v -4.298 h 183.687 l 18.752,1.613 v 2.685 z"
         id="path558"
         inkscape:connector-curvature="0" /></clipPath><clipPath
       clipPathUnits="userSpaceOnUse"
       id="clipPath572"><path
         d="m 269.076,291.198 v -2.161 h -54.241 v 2.161 h -2.039 v -8.758 h 58.797 v 8.758 z"
         id="path570"
         inkscape:connector-curvature="0" /></clipPath><clipPath
       clipPathUnits="userSpaceOnUse"
       id="clipPath584"><path
         d="m 212.796,398.117 v -35.653 h 2.039 v 35.533 h 27.403 v 0.12 z"
         id="path582"
         inkscape:connector-curvature="0" /></clipPath><clipPath
       clipPathUnits="userSpaceOnUse"
       id="clipPath596"><path
         d="m 242.151,398.117 v -0.12 h 26.925 v -35.533 h 2.517 v 35.653 z"
         id="path594"
         inkscape:connector-curvature="0" /></clipPath><clipPath
       clipPathUnits="userSpaceOnUse"
       id="clipPath608"><path
         d="m 212.796,362.55 v -35.657 l 2.039,0.14 v 35.517 z"
         id="path606"
         inkscape:connector-curvature="0" /></clipPath><clipPath
       clipPathUnits="userSpaceOnUse"
       id="clipPath620"><path
         d="m 269.076,362.55 v -31.727 c 0.989,0.238 1.839,0.682 2.517,1.216 v 0 30.511 z"
         id="path618"
         inkscape:connector-curvature="0" /></clipPath><clipPath
       clipPathUnits="userSpaceOnUse"
       id="clipPath632"><path
         d="m 269.076,330.823 v -9.865 h 2.517 v 11.081 c -0.678,-0.534 -1.528,-0.978 -2.517,-1.216 m -56.28,-3.93 v -5.935 h 2.039 v 6.075 z"
         id="path630"
         inkscape:connector-curvature="0" /></clipPath><clipPath
       clipPathUnits="userSpaceOnUse"
       id="clipPath644"><path
         d="m 269.076,291.198 h 2.517 v 2.931 h -2.517 z m -56.28,0 h 2.039 v 2.931 h -2.039 z"
         id="path642"
         inkscape:connector-curvature="0" /></clipPath><clipPath
       clipPathUnits="userSpaceOnUse"
       id="clipPath656"><path
         d="m 269.076,307.632 h 2.517 v 0.013 h -2.517 z m 0,-13.503 h 2.517 v 9.205 h -2.517 z m -56.28,0 h 2.039 v 9.205 h -2.039 z"
         id="path654"
         inkscape:connector-curvature="0" /></clipPath><clipPath
       clipPathUnits="userSpaceOnUse"
       id="clipPath668"><path
         d="m 212.796,307.632 h 2.039 v 0.013 h -2.039 z"
         id="path666"
         inkscape:connector-curvature="0" /></clipPath><clipPath
       clipPathUnits="userSpaceOnUse"
       id="clipPath680"><path
         d="m 269.076,309.803 v -2.159 h 2.517 v 2.599 c -0.827,-0.187 -1.668,-0.334 -2.517,-0.44"
         id="path678"
         inkscape:connector-curvature="0" /></clipPath><clipPath
       clipPathUnits="userSpaceOnUse"
       id="clipPath692"><path
         d="m 269.076,320.958 v -11.155 c 0.849,0.106 1.69,0.253 2.517,0.44 v 0 10.715 z m -56.28,-13.314 h 2.039 v 13.314 h -2.039 z"
         id="path690"
         inkscape:connector-curvature="0" /></clipPath><clipPath
       clipPathUnits="userSpaceOnUse"
       id="clipPath704"><path
         d="m 269.076,303.334 h 2.517 v 4.297 h -2.517 z m -56.28,1.613 v -1.613 h 2.039 v 1.788 z"
         id="path702"
         inkscape:connector-curvature="0" /></clipPath><clipPath
       clipPathUnits="userSpaceOnUse"
       id="clipPath716"><path
         d="m 212.796,307.632 v -2.685 l 2.039,0.175 v 2.51 z"
         id="path714"
         inkscape:connector-curvature="0" /></clipPath><clipPath
       clipPathUnits="userSpaceOnUse"
       id="clipPath728"><path
         d="m 214.835,289.037 h 54.24 v 2.161 h -54.24 z"
         id="path726"
         inkscape:connector-curvature="0" /></clipPath><clipPath
       clipPathUnits="userSpaceOnUse"
       id="clipPath740"><path
         d="m 214.835,362.464 h 54.24 v 35.533 h -54.24 z"
         id="path738"
         inkscape:connector-curvature="0" /></clipPath><clipPath
       clipPathUnits="userSpaceOnUse"
       id="clipPath752"><path
         d="m 214.835,362.55 v -35.517 l 53.074,3.614 c 0.407,0.026 0.797,0.087 1.167,0.176 v 0 31.727 z"
         id="path750"
         inkscape:connector-curvature="0" /></clipPath><clipPath
       clipPathUnits="userSpaceOnUse"
       id="clipPath764"><path
         d="m 267.909,330.647 -53.074,-3.614 v -6.075 h 54.241 v 9.865 c -0.37,-0.089 -0.76,-0.15 -1.167,-0.176"
         id="path762"
         inkscape:connector-curvature="0" /></clipPath><clipPath
       clipPathUnits="userSpaceOnUse"
       id="clipPath776"><path
         d="m 214.835,291.198 h 54.24 v 2.931 h -54.24 z"
         id="path774"
         inkscape:connector-curvature="0" /></clipPath><clipPath
       clipPathUnits="userSpaceOnUse"
       id="clipPath788"><path
         d="m 244.175,307.644 -0.154,-0.012 h 25.055 v 0.012 z m -29.34,-13.515 h 54.24 v 9.205 h -54.24 z"
         id="path786"
         inkscape:connector-curvature="0" /></clipPath><clipPath
       clipPathUnits="userSpaceOnUse"
       id="clipPath800"><path
         d="m 214.835,307.644 v -0.012 h 29.186 l 0.154,0.012 z"
         id="path798"
         inkscape:connector-curvature="0" /></clipPath><clipPath
       clipPathUnits="userSpaceOnUse"
       id="clipPath812"><path
         d="m 268.141,309.705 -23.966,-2.061 h 24.901 v 2.159 c -0.311,-0.037 -0.623,-0.071 -0.935,-0.098"
         id="path810"
         inkscape:connector-curvature="0" /></clipPath><clipPath
       clipPathUnits="userSpaceOnUse"
       id="clipPath824"><path
         d="m 214.835,320.958 v -13.314 h 29.34 l 23.966,2.061 c 0.312,0.027 0.624,0.061 0.935,0.098 v 0 11.155 z"
         id="path822"
         inkscape:connector-curvature="0" /></clipPath><clipPath
       clipPathUnits="userSpaceOnUse"
       id="clipPath836"><path
         d="m 244.021,307.632 -29.186,-2.51 v -1.788 h 54.241 v 4.298 z"
         id="path834"
         inkscape:connector-curvature="0" /></clipPath><clipPath
       clipPathUnits="userSpaceOnUse"
       id="clipPath848"><path
         d="m 214.835,307.632 v -2.51 l 29.186,2.51 z"
         id="path846"
         inkscape:connector-curvature="0" /></clipPath><clipPath
       clipPathUnits="userSpaceOnUse"
       id="clipPath868"><path
         d="M 0,0 H 289.134 V 459.212 H 0 Z"
         id="path866"
         inkscape:connector-curvature="0" /></clipPath><clipPath
       clipPathUnits="userSpaceOnUse"
       id="clipPath882"><path
         d="M 0,0 H 289.134 V 459.212 H 0 Z"
         id="path880"
         inkscape:connector-curvature="0" /></clipPath><clipPath
       clipPathUnits="userSpaceOnUse"
       id="clipPath906"><path
         d="m 27.233,23.863 c -0.161,-0.01 -0.77,-0.077 -1.309,-0.512 v 0 c -0.763,-0.617 -0.637,-1.917 -0.637,-1.917 v 0 c 0,0 0.412,0.751 0.926,1.143 v 0 c 0.578,0.441 1.061,0.396 1.061,0.396 v 0 0.89 z"
         id="path904"
         inkscape:connector-curvature="0" /></clipPath><clipPath
       clipPathUnits="userSpaceOnUse"
       id="clipPath918"><path
         d="m 27.193,25.51 c -1.777,-0.055 -3.233,-1.369 -3.51,-3.079 v 0 L 17.017,21.84 v -1.967 l 6.87,0.63 c 0.535,-1.368 1.863,-2.336 3.42,-2.336 v 0 c 2.028,0 3.671,1.645 3.671,3.672 v 0 c 0,1.991 -1.582,3.611 -3.557,3.671 v 0 z m -2.586,-3.671 c 0,1.489 1.211,2.7 2.7,2.7 v 0 c 1.489,0 2.7,-1.211 2.7,-2.7 v 0 c 0,-1.49 -1.211,-2.7 -2.7,-2.7 v 0 c -1.489,0 -2.7,1.21 -2.7,2.7"
         id="path916"
         inkscape:connector-curvature="0" /></clipPath><clipPath
       clipPathUnits="userSpaceOnUse"
       id="clipPath930"><path
         d="m 29.648,17.778 c -0.209,-0.151 -0.506,-0.32 -0.506,-0.32 v 0 l 0.004,-2.471 C 29.09,12.102 26.737,9.783 23.843,9.783 v 0 c -2.897,0 -5.249,2.319 -5.305,5.204 v 0 l -0.005,0.99 -0.997,0.429 v -1.759 c 0.173,-3.279 2.84,-5.897 6.136,-5.992 v 0 h 0.372 c 3.41,0.099 6.146,2.896 6.146,6.332 v 0 3.227 c 0,0 -0.333,-0.283 -0.542,-0.436"
         id="path928"
         inkscape:connector-curvature="0" /></clipPath><clipPath
       clipPathUnits="userSpaceOnUse"
       id="clipPath942"><path
         d="M 17.586,19.039 V 17.37 l 2.047,-0.784 v 0.174 c 0,-1.122 0.845,-2.031 1.886,-2.031 v 0 c 0.882,0 1.62,0.653 1.827,1.53 v 0 h 1.153 c 0.207,-0.877 0.944,-1.53 1.825,-1.53 v 0 c 1.042,0 1.887,0.909 1.887,2.031 v 0 0.614 h -3.772 v -0.481 h -1.031 v 0.481 h -3.775 l -1.016,0.244 -0.01,1.51 z m 7.486,-2.299 h 2.506 c -0.01,-0.76 -0.568,-1.375 -1.254,-1.375 v 0 c -0.685,0 -1.243,0.615 -1.252,1.375 m -4.806,0 h 2.507 c -0.009,-0.76 -0.568,-1.375 -1.254,-1.375 v 0 c -0.685,0 -1.244,0.615 -1.253,1.375"
         id="path940"
         inkscape:connector-curvature="0" /></clipPath><clipPath
       clipPathUnits="userSpaceOnUse"
       id="clipPath954"><path
         d="M 0,0 H 289.134 V 459.212 H 0 Z"
         id="path952"
         inkscape:connector-curvature="0" /></clipPath></defs><sodipodi:namedview
     pagecolor="#ffffff"
     bordercolor="#111111"
     borderopacity="1"
     objecttolerance="10"
     gridtolerance="10"
     guidetolerance="10"
     inkscape:pageopacity="0"
     inkscape:pageshadow="2"
     inkscape:window-width="1920"
     inkscape:window-height="1017"
     id="namedview166"
     showgrid="false"
     fit-margin-top="0"
     fit-margin-left="0"
     fit-margin-right="0"
     fit-margin-bottom="0"
     inkscape:zoom="0.27254869"
     inkscape:cx="-166.13826"
     inkscape:cy="597.44792"
     inkscape:window-x="1912"
     inkscape:window-y="-8"
     inkscape:window-maximized="1"
     inkscape:current-layer="g172"><inkscape:grid
       type="xygrid"
       id="grid1012"
       originx="-902.73312"
       originy="763.84232" /></sodipodi:namedview><g
     id="g172"
     inkscape:groupmode="layer"
     inkscape:label="OVS_Flyer_Patienten"
     transform="matrix(1.3333333,0,0,-1.3333333,-902.73312,80.985285)"><g
       id="g900"><g
         id="g902"
         clip-path="url(#clipPath906)"><g
           id="g908"><g
             id="g910" /></g></g></g><g
       id="g912"><g
         id="g914"
         clip-path="url(#clipPath918)"><g
           id="g920"><g
             id="g922" /></g></g></g><g
       id="g924"><g
         id="g926"
         clip-path="url(#clipPath930)"><g
           id="g932"><g
             id="g934" /></g></g></g><g
       id="g936"><g
         id="g938"
         clip-path="url(#clipPath942)"><g
           id="g944"><g
             id="g946" /></g></g></g><path
       class="st0"
       d="m 1357.2223,-515.98519 -95.6897,147.4138 c -56.8965,85.34483 -69.8276,100.86207 -116.3793,113.79311 95.6897,20.68965 147.4138,77.58621 147.4138,155.172414 0,95.6896575 -82.7586,155.172418 -212.069,155.172418 h -95.68961 v 0 c 20.68961,-5.172414 38.79311,-15.517242 59.48271,-28.448277 5.1725,0 10.3449,2.586207 23.2759,2.586207 90.5173,0 139.6552,-54.310346 139.6552,-129.310348 0,-85.344834 -51.7242,-142.241384 -116.3793,-142.241384 h -28.4483 v 0 c 64.6552,-25.86207 80.1724,-64.65517 100.8621,-100.86207 l 100.862,-181.03449 c 18.1035,-31.03448 38.7931,-49.13793 72.4138,-49.13793 h 90.5173 v 5.17241 c -36.2069,12.93104 -51.7242,23.27587 -69.8276,51.72414 z m -680.17244,-56.89655 v 5.17241 l 18.10345,7.75862 c 18.10345,7.75863 20.68965,18.10345 20.68965,33.6207 V 14.18724 c 0,15.517242 -5.17241,23.275863 -20.68965,33.620691 l -18.10345,7.758621 v 5.172413 h 204.31035 c 124.13789,0 204.31039,-59.4827596 204.31039,-150.000003 0,-67.241382 -54.3104,-113.793102 -134.4828,-134.482762 116.3793,-15.51724 191.3793,-75 191.3793,-170.68966 0,-93.10345 -69.8276,-175.86207 -258.62068,-175.86207 z M 803.774,-221.15759 h 67.24138 c 82.75862,0 126.72414,56.89655 126.72414,131.896552 0,69.827588 -46.55172,118.96552 -131.89655,118.96552 -25.86207,0 -51.72414,-5.172414 -62.06897,-12.931035 0,2.586207 0,-237.931037 0,-237.931037 z m 248.2759,-173.27587 c 0,69.82759 -41.3793,147.4138 -168.10348,147.4138 H 803.774 v -284.48277 c 25.86207,-7.75862 49.13793,-12.93103 87.93104,-12.93103 124.13796,0 160.34486,85.34483 160.34486,150 z"
       id="path10"
       inkscape:connector-curvature="0"
       style="fill:white;clip-rule:evenodd;fill-rule:evenodd;stroke-width:25.86207008"/></g></svg>